<svg focusable="false" xmlns="http://www.w3.org/2000/svg" width="373" height="300" viewBox="0 0 373 300" role="img" aria-label="Arventa logo mark">
  <path fill="#ffffff" d="M 181.0 206.0 L 107.0 241.0 L 63.0 266.0 L 48.0 279.0 L 36.0 299.0 L 122.0 299.0 L 149.0 237.0 L 167.0 217.0 Z"/>
  <path fill="#ffffff" d="M 247.0 192.0 L 244.0 198.0 L 245.0 209.0 L 283.0 299.0 L 372.0 299.0 L 319.0 183.0 L 317.0 170.0 L 325.0 161.0 L 268.0 178.0 L 257.0 183.0 Z"/>
  <path fill="#ffffff" d="M 353.0 138.0 L 351.0 136.0 L 290.0 139.0 L 191.0 152.0 L 115.0 169.0 L 18.0 198.0 L 13.0 203.0 L 0.0 277.0 L 4.0 279.0 L 69.0 242.0 L 156.0 203.0 L 244.0 172.0 L 309.0 154.0 L 352.0 144.0 Z"/>
  <path fill="#ffffff" d="M 96.0 152.0 L 100.0 155.0 L 108.0 155.0 L 192.0 137.0 L 186.0 133.0 L 184.0 126.0 L 196.0 100.0 L 207.0 122.0 L 212.0 127.0 L 221.0 131.0 L 313.0 130.0 L 299.0 121.0 L 283.0 102.0 L 238.0 1.0 L 160.0 0.0 L 100.0 136.0 Z"/>
</svg>
